<svg width="96" height="40" viewBox="0 0 96.4517 40.0016" fill="none" xmlns="http://www.w3.org/2000/svg">
<g id="Frame 1261158114">
<circle id="Ellipse 331" cx="76.4517" cy="19.9998" r="19.1998" fill="var(--fill-0, #FFE7B7)" stroke="var(--stroke-0, black)" stroke-width="1.6"/>
<circle id="Ellipse 332" cx="48.2237" cy="19.9998" r="19.1998" fill="var(--fill-0, #80DADA)" stroke="var(--stroke-0, black)" stroke-width="1.6"/>
<g id="Intersect">
<mask id="path-3-inside-1_0_4" fill="white">
<path d="M62.7957 5.89865C66.1635 9.47797 68.2283 14.2974 68.2283 19.5998C68.2283 25.3654 65.787 30.5593 61.8836 34.2092C58.5161 30.63 56.452 25.8102 56.452 20.508C56.452 14.7428 58.8928 9.54851 62.7957 5.89865Z"/>
</mask>
<path d="M62.7957 5.89865C66.1635 9.47797 68.2283 14.2974 68.2283 19.5998C68.2283 25.3654 65.787 30.5593 61.8836 34.2092C58.5161 30.63 56.452 25.8102 56.452 20.508C56.452 14.7428 58.8928 9.54851 62.7957 5.89865Z" fill="var(--fill-0, #A1A5FD)"/>
<path d="M62.7957 5.89865L63.961 4.80223L62.8679 3.6405L61.7029 4.73003L62.7957 5.89865ZM68.2283 19.5998L69.8283 19.5998V19.5998H68.2283ZM61.8836 34.2092L60.7183 35.3056L61.8113 36.4673L62.9764 35.3779L61.8836 34.2092ZM56.452 20.508H54.852V20.508L56.452 20.508ZM62.7957 5.89865L61.6304 6.99506C64.7304 10.2897 66.6283 14.7212 66.6283 19.5998H68.2283H69.8283C69.8283 13.8735 67.5966 8.66624 63.961 4.80223L62.7957 5.89865ZM68.2283 19.5998L66.6283 19.5998C66.6283 24.9037 64.3845 29.6802 60.7908 33.0405L61.8836 34.2092L62.9764 35.3779C67.1894 31.4384 69.8283 25.827 69.8283 19.5998L68.2283 19.5998ZM61.8836 34.2092L63.0489 33.1128C59.9494 29.8184 58.052 25.3866 58.052 20.508L56.452 20.508L54.852 20.508C54.852 26.2338 57.0828 31.4415 60.7183 35.3056L61.8836 34.2092ZM56.452 20.508H58.052C58.052 15.2043 60.2954 10.4275 63.8886 7.06727L62.7957 5.89865L61.7029 4.73003C57.4902 8.66951 54.852 14.2813 54.852 20.508H56.452Z" fill="var(--stroke-0, black)" mask="url(#path-3-inside-1_0_4)"/>
</g>
<circle id="Ellipse 333" cx="19.9998" cy="19.9998" r="19.1998" fill="var(--fill-0, #F4298F)" stroke="var(--stroke-0, black)" stroke-width="1.6"/>
<g id="Intersect_2">
<mask id="path-6-inside-2_0_4" fill="white">
<path d="M34.5724 5.89767C37.9406 9.47707 40.006 14.297 40.006 19.5998C40.006 25.3652 37.5645 30.5593 33.6613 34.2092C30.2937 30.6299 28.2297 25.8103 28.2296 20.508C28.2296 14.7427 30.6694 9.54754 34.5724 5.89767Z"/>
</mask>
<path d="M34.5724 5.89767C37.9406 9.47707 40.006 14.297 40.006 19.5998C40.006 25.3652 37.5645 30.5593 33.6613 34.2092C30.2937 30.6299 28.2297 25.8103 28.2296 20.508C28.2296 14.7427 30.6694 9.54754 34.5724 5.89767Z" fill="var(--fill-0, #FFBC7A)"/>
<path d="M34.5724 5.89767L35.7376 4.8012L34.6446 3.6396L33.4796 4.72904L34.5724 5.89767ZM40.006 19.5998L41.606 19.5998V19.5998H40.006ZM33.6613 34.2092L32.496 35.3056L33.589 36.4673L34.7541 35.3779L33.6613 34.2092ZM28.2296 20.508H26.6296V20.508L28.2296 20.508ZM34.5724 5.89767L33.4072 6.99415C36.5075 10.2889 38.406 14.7209 38.406 19.5998H40.006H41.606C41.606 13.8731 39.3737 8.66526 35.7376 4.8012L34.5724 5.89767ZM40.006 19.5998L38.406 19.5998C38.406 24.9036 36.1621 29.6802 32.5685 33.0405L33.6613 34.2092L34.7541 35.3779C38.967 31.4385 41.606 25.8269 41.606 19.5998L40.006 19.5998ZM33.6613 34.2092L34.8266 33.1128C31.7269 29.8184 29.8297 25.3867 29.8296 20.508L28.2296 20.508L26.6296 20.508C26.6297 26.2339 28.8604 31.4415 32.496 35.3056L33.6613 34.2092ZM28.2296 20.508H29.8296C29.8296 15.204 32.0722 10.4263 35.6653 7.06631L34.5724 5.89767L33.4796 4.72904C29.2666 8.66874 26.6296 14.2815 26.6296 20.508H28.2296Z" fill="var(--stroke-0, black)" mask="url(#path-6-inside-2_0_4)"/>
</g>
</g>
</svg>
