<svg width="20" height="21" viewBox="0 0 20 21" fill="none" xmlns="http://www.w3.org/2000/svg">
<mask id="path-1-inside-1_724_2549" fill="white">
<path d="M6.99959 18.6053C6.99959 17.7655 7.16499 16.9339 7.48636 16.1581C7.80772 15.3823 8.27876 14.6773 8.87256 14.0835C9.46637 13.4897 10.1713 13.0187 10.9472 12.6973C11.723 12.3759 12.5546 12.2105 13.3943 12.2105C14.2341 12.2105 15.0656 12.3759 15.8415 12.6973C16.6173 13.0187 17.3223 13.4897 17.9161 14.0835C18.5099 14.6773 18.9809 15.3823 19.3023 16.1581C19.6237 16.9339 19.7891 17.7655 19.7891 18.6053L13.3943 18.6053L6.99959 18.6053Z"/>
</mask>
<path d="M6.99959 18.6053C6.99959 17.7655 7.16499 16.9339 7.48636 16.1581C7.80772 15.3823 8.27876 14.6773 8.87256 14.0835C9.46637 13.4897 10.1713 13.0187 10.9472 12.6973C11.723 12.3759 12.5546 12.2105 13.3943 12.2105C14.2341 12.2105 15.0656 12.3759 15.8415 12.6973C16.6173 13.0187 17.3223 13.4897 17.9161 14.0835C18.5099 14.6773 18.9809 15.3823 19.3023 16.1581C19.6237 16.9339 19.7891 17.7655 19.7891 18.6053L13.3943 18.6053L6.99959 18.6053Z" fill="#D45782" stroke="#D45782" stroke-width="1.27895" mask="url(#path-1-inside-1_724_2549)"/>
<mask id="path-2-inside-2_724_2549" fill="white">
<path d="M-0.000411428 18.6053C-0.000411355 17.7655 0.164993 16.9339 0.486359 16.1581C0.807725 15.3823 1.27876 14.6773 1.87256 14.0835C2.46637 13.4897 3.17132 13.0187 3.94717 12.6973C4.72301 12.3759 5.55456 12.2105 6.39433 12.2105C7.2341 12.2105 8.06564 12.3759 8.84149 12.6973C9.61733 13.0187 10.3223 13.4897 10.9161 14.0835C11.5099 14.6773 11.9809 15.3823 12.3023 16.1581C12.6237 16.9339 12.7891 17.7655 12.7891 18.6053L6.39433 18.6053L-0.000411428 18.6053Z"/>
</mask>
<path d="M-0.000411428 18.6053C-0.000411355 17.7655 0.164993 16.9339 0.486359 16.1581C0.807725 15.3823 1.27876 14.6773 1.87256 14.0835C2.46637 13.4897 3.17132 13.0187 3.94717 12.6973C4.72301 12.3759 5.55456 12.2105 6.39433 12.2105C7.2341 12.2105 8.06564 12.3759 8.84149 12.6973C9.61733 13.0187 10.3223 13.4897 10.9161 14.0835C11.5099 14.6773 11.9809 15.3823 12.3023 16.1581C12.6237 16.9339 12.7891 17.7655 12.7891 18.6053L6.39433 18.6053L-0.000411428 18.6053Z" fill="#D45782" stroke="#D45782" stroke-width="1.27895" mask="url(#path-2-inside-2_724_2549)"/>
<rect x="2.8418" y="4" width="6.39474" height="6.39474" rx="3.19737" fill="#D45782"/>
<rect x="10.0508" y="4" width="6.39474" height="6.39474" rx="3.19737" fill="#D45782"/>
</svg>
