<svg width="18" height="18" viewBox="0 0 18 18" fill="none" xmlns="http://www.w3.org/2000/svg">
<mask id="path-1-inside-1_683_17291" fill="white">
<path d="M-0.000821114 3.93281e-07C1.18071 3.41634e-07 2.35067 0.23272 3.44227 0.684874C4.53386 1.13703 5.52571 1.79976 6.36118 2.63523C7.19665 3.4707 7.85938 4.46254 8.31153 5.55414C8.76369 6.64573 8.9964 7.81569 8.99641 8.99723C8.99641 10.1788 8.76369 11.3487 8.31153 12.4403C7.85938 13.5319 7.19665 14.5238 6.36118 15.3592C5.52571 16.1947 4.53386 16.8574 3.44227 17.3096C2.35067 17.7617 1.18071 17.9945 -0.000821281 17.9945L-0.00082072 8.99723L-0.000821114 3.93281e-07Z"/>
</mask>
<path d="M-0.000821114 3.93281e-07C1.18071 3.41634e-07 2.35067 0.23272 3.44227 0.684874C4.53386 1.13703 5.52571 1.79976 6.36118 2.63523C7.19665 3.4707 7.85938 4.46254 8.31153 5.55414C8.76369 6.64573 8.9964 7.81569 8.99641 8.99723C8.99641 10.1788 8.76369 11.3487 8.31153 12.4403C7.85938 13.5319 7.19665 14.5238 6.36118 15.3592C5.52571 16.1947 4.53386 16.8574 3.44227 17.3096C2.35067 17.7617 1.18071 17.9945 -0.000821281 17.9945L-0.00082072 8.99723L-0.000821114 3.93281e-07Z" fill="#91D3E1" stroke="#91D3E1" stroke-width="1.79945" mask="url(#path-1-inside-1_683_17291)"/>
<mask id="path-2-inside-2_683_17291" fill="white">
<path d="M17.534 17.9948C16.3525 17.9948 15.1825 17.762 14.0909 17.3099C12.9993 16.8577 12.0075 16.195 11.172 15.3595C10.3366 14.5241 9.67382 13.5322 9.22167 12.4406C8.76952 11.349 8.5368 10.1791 8.5368 8.99754C8.5368 7.816 8.76952 6.64604 9.22167 5.55445C9.67383 4.46285 10.3366 3.47101 11.172 2.63554C12.0075 1.80007 12.9993 1.13734 14.0909 0.685184C15.1825 0.233031 16.3525 0.000311136 17.534 0.000311291L17.534 8.99754L17.534 17.9948Z"/>
</mask>
<path d="M17.534 17.9948C16.3525 17.9948 15.1825 17.762 14.0909 17.3099C12.9993 16.8577 12.0075 16.195 11.172 15.3595C10.3366 14.5241 9.67382 13.5322 9.22167 12.4406C8.76952 11.349 8.5368 10.1791 8.5368 8.99754C8.5368 7.816 8.76952 6.64604 9.22167 5.55445C9.67383 4.46285 10.3366 3.47101 11.172 2.63554C12.0075 1.80007 12.9993 1.13734 14.0909 0.685184C15.1825 0.233031 16.3525 0.000311136 17.534 0.000311291L17.534 8.99754L17.534 17.9948Z" fill="#91D3E1" stroke="#91D3E1" stroke-width="1.79945" mask="url(#path-2-inside-2_683_17291)"/>
</svg>
