<svg preserveAspectRatio="none" width="100%" height="100%" overflow="visible" style="display: block;" viewBox="0 0 40 40" fill="none" xmlns="http://www.w3.org/2000/svg">
<g id="Frame 1261155426">
<path id="Shape" d="M19.7646 11.7376C22.1061 9.39399 25.9051 9.39399 28.2482 11.7371C30.5313 14.0202 30.5898 17.6854 28.4239 20.0394L28.2357 20.2367L19.4357 29.0349L19.3991 29.0652C17.9379 30.3819 15.6839 30.3372 14.2765 28.9298C12.9575 27.6108 12.8354 25.5481 13.9101 24.0914C13.9335 24.0461 13.9617 24.0023 13.9949 23.9612L14.0485 23.9015L14.1354 23.8138L14.2765 23.6659L14.2794 23.6688L21.7151 16.2145C21.9811 15.9478 22.3977 15.9231 22.6916 16.1406L22.7758 16.2131C23.0424 16.479 23.0672 16.8956 22.8497 17.1895L22.7772 17.2737L15.1826 24.8868C14.465 25.7624 14.5148 27.0567 15.3322 27.8741C16.1613 28.7031 17.481 28.7426 18.3567 27.9925L27.1894 19.162C28.9449 17.4044 28.9449 14.5552 27.1876 12.7978C25.4851 11.0954 22.758 11.0422 20.9915 12.6382L20.8236 12.7978L20.8111 12.8121L11.2747 22.3484C10.9818 22.6413 10.507 22.6413 10.2141 22.3484C9.94781 22.0822 9.92361 21.6655 10.1415 21.3719L10.2141 21.2878L19.7629 11.7371L19.7646 11.7376Z" fill="var(--fill-0, #8C8C8C)" stroke="var(--stroke-1, #8C8C8C)"/>
</g>
</svg>
