<svg width="18" height="16" viewBox="0 0 18 16" fill="none" xmlns="http://www.w3.org/2000/svg">
<path d="M9.73145 0C10.0898 0 10.3799 0.291109 10.3799 0.649414V1.36914C7.33714 1.90503 5.02464 4.5595 5.02441 7.75586C5.02441 10.9524 7.33707 13.6066 10.3799 14.1426V14.9219C10.3799 15.2802 10.0898 15.5703 9.73145 15.5703H0.648438C0.290285 15.5701 0 15.2801 0 14.9219V0.649414C0 0.29122 0.290285 0.000178401 0.648438 0H9.73145ZM11.5127 1.26855C15.0955 1.26865 17.9997 4.17309 18 7.75586C18 11.3388 15.0957 14.244 11.5127 14.2441C11.1262 14.2441 10.7478 14.2074 10.3799 14.1426V1.36914C10.7478 1.30435 11.1262 1.26855 11.5127 1.26855Z" fill="#FA7779"/>
</svg>
