<svg preserveAspectRatio="none" width="100%" height="100%" overflow="visible" style="display: block;" viewBox="0 0 10 10" fill="none" xmlns="http://www.w3.org/2000/svg">
<g id="interface-calendar--blank-calendar-date-day-month">
<path id="&#244;&#128;&#133;&#188;" d="M5.00005 8.33323C5.19803 8.33323 5.36369 8.17884 5.36369 7.98881V5.35619H7.97379C8.16773 5.35619 8.33338 5.19388 8.33338 4.9999C8.33338 4.80592 8.16773 4.64756 7.97379 4.64756H5.36369V2.01098C5.36369 1.82096 5.19803 1.66656 5.00005 1.66656C4.80207 1.66656 4.64045 1.82096 4.64045 2.01098V4.64756H2.02631C1.83237 4.64756 1.66672 4.80592 1.66672 4.9999C1.66672 5.19388 1.83237 5.35619 2.02631 5.35619H4.64045V7.98881C4.64045 8.17884 4.80207 8.33323 5.00005 8.33323Z" fill="var(--fill-0, #3B3B3B)" stroke="var(--stroke-1, #3B3B3B)" stroke-width="0.416667"/>
</g>
</svg>
