<svg width="40" height="97" viewBox="0 0 40 97" fill="none" xmlns="http://www.w3.org/2000/svg">
<circle cx="20.0022" cy="76.452" r="19.3206" transform="rotate(90 20.0022 76.452)" fill="#FFE7B7" stroke="black" stroke-width="1.35848"/>
<circle cx="20.0022" cy="48.2239" r="19.3206" transform="rotate(90 20.0022 48.2239)" fill="#80DADA" stroke="black" stroke-width="1.35848"/>
<mask id="path-3-inside-1_693_25664" fill="white">
<path d="M34.1035 62.7959C30.5242 66.1637 25.7048 68.2285 20.4023 68.2285C14.6368 68.2285 9.44283 65.7872 5.79297 61.8838C9.3722 58.5163 14.192 56.4522 19.4941 56.4521C25.2593 56.4521 30.4537 58.893 34.1035 62.7959Z"/>
</mask>
<path d="M34.1035 62.7959C30.5242 66.1637 25.7048 68.2285 20.4023 68.2285C14.6368 68.2285 9.44283 65.7872 5.79297 61.8838C9.3722 58.5163 14.192 56.4522 19.4941 56.4521C25.2593 56.4521 30.4537 58.893 34.1035 62.7959Z" fill="#A1A5FD"/>
<path d="M34.1035 62.7959L35.0344 63.7853L36.0208 62.8572L35.0957 61.868L34.1035 62.7959ZM20.4023 68.2285L20.4023 69.587L20.4023 69.587L20.4023 68.2285ZM5.79297 61.8838L4.86209 60.8944L3.87572 61.8224L4.80069 62.8116L5.79297 61.8838ZM19.4941 56.4521L19.4941 55.0937L19.4941 55.0937L19.4941 56.4521ZM34.1035 62.7959L33.1726 61.8065C29.835 64.9469 25.345 66.87 20.4023 66.87L20.4023 68.2285L20.4023 69.587C26.0646 69.587 31.2134 67.3805 35.0344 63.7853L34.1035 62.7959ZM20.4023 68.2285L20.4024 66.87C15.0287 66.87 10.1892 64.5964 6.78524 60.956L5.79297 61.8838L4.80069 62.8116C8.69641 66.9779 14.2448 69.5869 20.4023 69.587L20.4023 68.2285ZM5.79297 61.8838L6.72385 62.8732C10.0613 59.7332 14.5517 57.8107 19.4942 57.8106L19.4941 56.4521L19.4941 55.0937C13.8323 55.0937 8.68313 57.2994 4.86209 60.8944L5.79297 61.8838ZM19.4941 56.4521L19.4941 57.8106C24.8675 57.8106 29.7073 60.0838 33.1113 63.7238L34.1035 62.7959L35.0957 61.868C31.2 57.7022 25.6512 55.0937 19.4941 55.0937L19.4941 56.4521Z" fill="black" mask="url(#path-3-inside-1_693_25664)"/>
<circle cx="20.0022" cy="19.9998" r="19.3206" transform="rotate(90 20.0022 19.9998)" fill="#F4298F" stroke="black" stroke-width="1.35848"/>
<mask id="path-6-inside-2_693_25664" fill="white">
<path d="M34.1035 34.5713C30.524 37.9401 25.7037 40.0059 20.4004 40.0059C14.6355 40.0058 9.44179 37.5647 5.79199 33.6621C9.37135 30.2939 14.1914 28.2295 19.4941 28.2295C25.2589 28.2295 30.4537 30.6688 34.1035 34.5713Z"/>
</mask>
<path d="M34.1035 34.5713C30.524 37.9401 25.7037 40.0059 20.4004 40.0059C14.6355 40.0058 9.44179 37.5647 5.79199 33.6621C9.37135 30.2939 14.1914 28.2295 19.4941 28.2295C25.2589 28.2295 30.4537 30.6688 34.1035 34.5713Z" fill="#FFBC7A"/>
<path d="M34.1035 34.5713L35.0345 35.5606L36.0207 34.6324L35.0957 33.6433L34.1035 34.5713ZM20.4004 40.0059L20.4004 41.3643L20.4004 41.3643L20.4004 40.0059ZM5.79199 33.6621L4.86102 32.6728L3.87473 33.6009L4.7998 34.59L5.79199 33.6621ZM19.4941 28.2295L19.4941 26.871L19.4941 26.871L19.4941 28.2295ZM34.1035 34.5713L33.1725 33.582C29.8347 36.7233 25.3438 38.6474 20.4004 38.6474L20.4004 40.0059L20.4004 41.3643C26.0637 41.3643 31.2134 39.1568 35.0345 35.5606L34.1035 34.5713ZM20.4004 40.0059L20.4004 38.6474C15.0274 38.6473 10.1882 36.374 6.78419 32.7342L5.79199 33.6621L4.7998 34.59C8.69543 38.7555 14.2435 41.3643 20.4004 41.3643L20.4004 40.0059ZM5.79199 33.6621L6.72296 34.6514C10.0605 31.5108 14.5511 29.588 19.4942 29.588L19.4941 28.2295L19.4941 26.871C13.8316 26.8711 8.68222 29.077 4.86102 32.6728L5.79199 33.6621ZM19.4941 28.2295L19.4941 29.588C24.8674 29.588 29.7076 31.8599 33.1113 35.4992L34.1035 34.5713L35.0957 33.6433C31.1998 29.4778 25.6505 26.871 19.4941 26.871L19.4941 28.2295Z" fill="black" mask="url(#path-6-inside-2_693_25664)"/>
</svg>
