<svg preserveAspectRatio="none" width="100%" height="100%" overflow="visible" style="display: block;" viewBox="0 0 19.4422 23.7499" fill="none" xmlns="http://www.w3.org/2000/svg">
<g id="Frame 1261157684">
<path id="Star 6" d="M9.42005 2.41914C9.46416 2.06461 9.978 2.06461 10.0221 2.41914L10.7912 8.60148C10.8203 8.83512 11.0929 8.94803 11.2786 8.80337L16.194 4.97564C16.4759 4.75614 16.8393 5.11948 16.6198 5.40136L12.792 10.3168C12.6474 10.5025 12.7603 10.7751 12.9939 10.8042L19.1763 11.5733C19.5308 11.6174 19.5308 12.1312 19.1763 12.1754L12.9939 12.9445C12.7603 12.9735 12.6474 13.2461 12.792 13.4319L16.6198 18.3473C16.8393 18.6292 16.4759 18.9925 16.194 18.773L11.2786 14.9453C11.0929 14.8006 10.8203 14.9135 10.7912 15.1472L10.0221 21.3295C9.978 21.684 9.46416 21.684 9.42005 21.3295L8.65094 15.1472C8.62187 14.9135 8.3493 14.8006 8.16353 14.9453L3.24812 18.773C2.96624 18.9925 2.60289 18.6292 2.8224 18.3473L6.65013 13.4319C6.79479 13.2461 6.68188 12.9735 6.44824 12.9445L0.265899 12.1754C-0.0886334 12.1312 -0.0886331 11.6174 0.2659 11.5733L6.44824 10.8042C6.68188 10.7751 6.79479 10.5025 6.65013 10.3168L2.8224 5.40136C2.60289 5.11948 2.96624 4.75614 3.24812 4.97564L8.16353 8.80337C8.3493 8.94803 8.62187 8.83512 8.65094 8.60148L9.42005 2.41914Z" fill="var(--fill-0, #D9D9D9)"/>
</g>
</svg>
