<svg preserveAspectRatio="none" width="100%" height="100%" overflow="visible" style="display: block;" viewBox="0 0 24.9999 24.9999" fill="none" xmlns="http://www.w3.org/2000/svg">
<g id="Frame 1261157685">
<rect width="24.9999" height="24.9999" rx="1.6129" fill="var(--fill-0, #EE1682)"/>
<path id="Star 6" d="M12.2446 4.47344C12.282 4.17248 12.7182 4.17248 12.7557 4.47345L13.4086 9.72161C13.4332 9.91995 13.6646 10.0158 13.8223 9.89299L17.995 6.64365C18.2343 6.45731 18.5427 6.76575 18.3564 7.00504L15.1071 11.1777C14.9843 11.3354 15.0801 11.5668 15.2784 11.5915L20.5266 12.2444C20.8276 12.2818 20.8276 12.718 20.5266 12.7555L15.2784 13.4084C15.0801 13.433 14.9843 13.6644 15.1071 13.8221L18.3564 17.9948C18.5427 18.2341 18.2343 18.5425 17.995 18.3562L13.8223 15.1068C13.6646 14.984 13.4332 15.0799 13.4086 15.2782L12.7557 20.5264C12.7182 20.8273 12.282 20.8273 12.2446 20.5264L11.5917 15.2782C11.567 15.0799 11.3356 14.984 11.1779 15.1068L7.00526 18.3562C6.76597 18.5425 6.45753 18.2341 6.64387 17.9948L9.89321 13.8221C10.016 13.6644 9.92017 13.433 9.72183 13.4084L4.47366 12.7555C4.1727 12.718 4.1727 12.2818 4.47366 12.2444L9.72183 11.5915C9.92017 11.5668 10.016 11.3354 9.89321 11.1777L6.64387 7.00504C6.45753 6.76575 6.76597 6.45731 7.00526 6.64365L11.1779 9.89299C11.3356 10.0158 11.567 9.91995 11.5917 9.72161L12.2446 4.47344Z" fill="var(--fill-0, white)"/>
</g>
</svg>
