<svg preserveAspectRatio="none" width="100%" height="100%" overflow="visible" style="display: block;" viewBox="0 0 16.1929 22.5646" fill="none" xmlns="http://www.w3.org/2000/svg">
<g id="Frame 1261158069">
<path id="Polygon 21" d="M7.48535 7.99237C7.62852 7.74504 7.98574 7.74504 8.12891 7.99237L13.6025 17.4728C13.7456 17.7207 13.5664 18.0305 13.2803 18.0305H2.33398C2.04781 18.0305 1.86866 17.7207 2.01172 17.4728L7.48535 7.99237Z" fill="var(--fill-0, #FFE299)" stroke="var(--stroke-0, #FFE299)" stroke-width="0.743536"/>
<g id="Ellipse 25">
<mask id="path-2-inside-1_0_165" fill="white">
<path d="M14.8707 5.96046e-07C14.8707 0.976426 14.6784 1.94329 14.3047 2.84539C13.9311 3.74749 13.3834 4.56716 12.693 5.25759C12.0025 5.94803 11.1828 6.49572 10.2807 6.86938C9.37865 7.24304 8.41179 7.43536 7.43536 7.43536C6.45893 7.43536 5.49207 7.24304 4.58997 6.86938C3.68787 6.49572 2.8682 5.94803 2.17777 5.25759C1.48733 4.56716 0.939645 3.74749 0.565983 2.84539C0.192321 1.94329 -8.53618e-08 0.976425 0 -5.39734e-08L7.43536 5.96046e-07H14.8707Z"/>
</mask>
<path d="M14.8707 5.96046e-07C14.8707 0.976426 14.6784 1.94329 14.3047 2.84539C13.9311 3.74749 13.3834 4.56716 12.693 5.25759C12.0025 5.94803 11.1828 6.49572 10.2807 6.86938C9.37865 7.24304 8.41179 7.43536 7.43536 7.43536C6.45893 7.43536 5.49207 7.24304 4.58997 6.86938C3.68787 6.49572 2.8682 5.94803 2.17777 5.25759C1.48733 4.56716 0.939645 3.74749 0.565983 2.84539C0.192321 1.94329 -8.53618e-08 0.976425 0 -5.39734e-08L7.43536 5.96046e-07H14.8707Z" fill="var(--fill-0, #FFE299)" stroke="var(--stroke-0, #FFE299)" stroke-width="1.48707" mask="url(#path-2-inside-1_0_165)"/>
</g>
</g>
</svg>
