<svg preserveAspectRatio="none" width="100%" height="100%" overflow="visible" style="display: block;" viewBox="0 0 18 16.5499" fill="none" xmlns="http://www.w3.org/2000/svg">
<path id="Vector" d="M9.84833 0.351314C9.62331 0.126368 9.31817 0 9 0C8.68183 0 8.37669 0.126368 8.15167 0.351314L0.175943 8.32584C0.120162 8.38162 0.0759145 8.44784 0.0457261 8.52073C0.0155378 8.59361 0 8.67172 0 8.75061C0 8.82949 0.0155378 8.90761 0.0457261 8.98049C0.0759145 9.05337 0.120162 9.11959 0.175943 9.17537C0.288598 9.28803 0.44139 9.35131 0.600707 9.35131C0.679593 9.35131 0.757707 9.33578 0.830588 9.30559C0.903469 9.2754 0.969691 9.23115 1.02547 9.17537L1.80061 8.39904V14.7501C1.80061 15.2275 1.99023 15.6853 2.32777 16.0228C2.66531 16.3603 3.12311 16.55 3.60045 16.55H14.3995C14.8769 16.55 15.3347 16.3603 15.6722 16.0228C16.0098 15.6853 16.1994 15.2275 16.1994 14.7501V8.39904L16.9745 9.17537C17.0872 9.28803 17.24 9.35131 17.3993 9.35131C17.5586 9.35131 17.7114 9.28803 17.8241 9.17537C17.9367 9.06272 18 8.90992 18 8.75061C18 8.59129 17.9367 8.4385 17.8241 8.32584L14.9995 5.50248V1.55121C14.9995 1.3921 14.9363 1.2395 14.8238 1.12698C14.7113 1.01447 14.5587 0.951264 14.3995 0.951264H13.1996C13.0405 0.951264 12.8879 1.01447 12.7754 1.12698C12.6629 1.2395 12.5997 1.3921 12.5997 1.55121V3.10268L9.84833 0.351314ZM14.9995 7.19914V14.7501C14.9995 14.9092 14.9363 15.0618 14.8238 15.1743C14.7113 15.2868 14.5587 15.3501 14.3995 15.3501H3.60045C3.44134 15.3501 3.28874 15.2868 3.17623 15.1743C3.06371 15.0618 3.00051 14.9092 3.00051 14.7501V7.19914L9 1.19964L14.9995 7.19914Z" fill="var(--fill-0, #3B3B3B)"/>
</svg>
