<svg width="20" height="21" viewBox="0 0 20 21" fill="none" xmlns="http://www.w3.org/2000/svg">
<path d="M9.39746 9.29785C9.55325 9.02801 9.94284 9.02801 10.0986 9.29785L16.0576 19.6191C16.2133 19.889 16.0186 20.2266 15.707 20.2266H3.78906C3.47752 20.2266 3.28281 19.889 3.43848 19.6191L9.39746 9.29785Z" fill="#FFD3A8" stroke="#FFD3A8" stroke-width="0.809524"/>
<mask id="path-2-inside-1_725_2562" fill="white">
<path d="M17.4385 0.595238C17.4385 1.65832 17.2291 2.71099 16.8223 3.69315C16.4155 4.67531 15.8192 5.56772 15.0675 6.31944C14.3158 7.07115 13.4234 7.66744 12.4412 8.07426C11.459 8.48109 10.4064 8.69048 9.34328 8.69048C8.2802 8.69048 7.22753 8.48109 6.24537 8.07426C5.26321 7.66744 4.3708 7.07115 3.61909 6.31943C2.86737 5.56772 2.27108 4.67531 1.86426 3.69315C1.45744 2.71099 1.24805 1.65832 1.24805 0.595237L9.34328 0.595238H17.4385Z"/>
</mask>
<path d="M17.4385 0.595238C17.4385 1.65832 17.2291 2.71099 16.8223 3.69315C16.4155 4.67531 15.8192 5.56772 15.0675 6.31944C14.3158 7.07115 13.4234 7.66744 12.4412 8.07426C11.459 8.48109 10.4064 8.69048 9.34328 8.69048C8.2802 8.69048 7.22753 8.48109 6.24537 8.07426C5.26321 7.66744 4.3708 7.07115 3.61909 6.31943C2.86737 5.56772 2.27108 4.67531 1.86426 3.69315C1.45744 2.71099 1.24805 1.65832 1.24805 0.595237L9.34328 0.595238H17.4385Z" fill="#FFD3A8" stroke="#FFD3A8" stroke-width="1.61905" mask="url(#path-2-inside-1_725_2562)"/>
</svg>
