<svg width="18" height="18" viewBox="0 0 44 44" fill="none" xmlns="http://www.w3.org/2000/svg">
<mask id="path-1-inside-1_944_4830" fill="white">
<path d="M1.9233e-06 44C2.17587e-06 41.1109 0.569049 38.2501 1.67465 35.581C2.78026 32.9118 4.40077 30.4865 6.44365 28.4437C8.48654 26.4008 10.9118 24.7803 13.581 23.6747C16.2501 22.569 19.1109 22 22 22C24.8891 22 27.7499 22.569 30.419 23.6747C33.0882 24.7803 35.5135 26.4008 37.5564 28.4437C39.5992 30.4865 41.2197 32.9118 42.3254 35.581C43.431 38.2501 44 41.1109 44 44L22 44L1.9233e-06 44Z"/>
</mask>
<path d="M1.9233e-06 44C2.17587e-06 41.1109 0.569049 38.2501 1.67465 35.581C2.78026 32.9118 4.40077 30.4865 6.44365 28.4437C8.48654 26.4008 10.9118 24.7803 13.581 23.6747C16.2501 22.569 19.1109 22 22 22C24.8891 22 27.7499 22.569 30.419 23.6747C33.0882 24.7803 35.5135 26.4008 37.5564 28.4437C39.5992 30.4865 41.2197 32.9118 42.3254 35.581C43.431 38.2501 44 41.1109 44 44L22 44L1.9233e-06 44Z" stroke="#262626" stroke-width="4.4" mask="url(#path-1-inside-1_944_4830)"/>
<mask id="path-2-inside-2_944_4830" fill="white">
<path d="M1.9233e-06 22C2.17587e-06 19.1109 0.569049 16.2501 1.67465 13.581C2.78026 10.9118 4.40077 8.48654 6.44365 6.44365C8.48654 4.40076 10.9118 2.78025 13.581 1.67465C16.2501 0.569048 19.1109 1.54444e-06 22 1.9233e-06C24.8891 2.30216e-06 27.7499 0.569049 30.419 1.67465C33.0882 2.78026 35.5135 4.40077 37.5564 6.44366C39.5992 8.48654 41.2197 10.9118 42.3254 13.581C43.431 16.2501 44 19.1109 44 22L22 22L1.9233e-06 22Z"/>
</mask>
<path d="M1.9233e-06 22C2.17587e-06 19.1109 0.569049 16.2501 1.67465 13.581C2.78026 10.9118 4.40077 8.48654 6.44365 6.44365C8.48654 4.40076 10.9118 2.78025 13.581 1.67465C16.2501 0.569048 19.1109 1.54444e-06 22 1.9233e-06C24.8891 2.30216e-06 27.7499 0.569049 30.419 1.67465C33.0882 2.78026 35.5135 4.40077 37.5564 6.44366C39.5992 8.48654 41.2197 10.9118 42.3254 13.581C43.431 16.2501 44 19.1109 44 22L22 22L1.9233e-06 22Z" stroke="#262626" stroke-width="4.4" mask="url(#path-2-inside-2_944_4830)"/>
</svg>
