<svg preserveAspectRatio="none" width="100%" height="100%" overflow="visible" style="display: block;" viewBox="0 0 16 16" fill="none" xmlns="http://www.w3.org/2000/svg">
<g id="lightning-charge-fill">
<path id="Vector (Stroke)" d="M11.2514 0.0678058C11.4524 0.184724 11.5463 0.424795 11.4779 0.647058L9.67698 6.50002H13C13.1995 6.50002 13.3799 6.61858 13.459 6.8017C13.5381 6.98482 13.5008 7.19744 13.3641 7.3427L5.3641 15.8427C5.20472 16.012 4.94963 16.0491 4.74861 15.9322C4.5476 15.8153 4.45372 15.5752 4.52211 15.353L6.32302 9.50002H3C2.80052 9.50002 2.62013 9.38145 2.54101 9.19833C2.46189 9.01522 2.49919 8.80259 2.6359 8.65733L10.6359 0.157333C10.7953 -0.0120074 11.0504 -0.049112 11.2514 0.0678058Z" fill="var(--fill-0, #595959)"/>
</g>
</svg>
