<svg preserveAspectRatio="none" width="100%" height="100%" overflow="visible" style="display: block;" viewBox="0 0 24.1426 19.1005" fill="none" xmlns="http://www.w3.org/2000/svg">
<g id="Group">
<path id="Vector" d="M5.28571 6.12109H2.71429C2.25963 6.12109 1.82359 6.30171 1.5021 6.6232C1.18061 6.94469 1 7.38072 1 7.83538V11.264C1 11.7186 1.18061 12.1546 1.5021 12.4761C1.82359 12.7976 2.25963 12.9782 2.71429 12.9782H5.28571V6.12109Z" stroke="var(--stroke-0, #8C8C8C)" stroke-width="2" stroke-linecap="round" stroke-linejoin="round"/>
<path id="Vector_2" d="M5.28613 12.9788L11.989 17.796C12.2373 17.9678 12.5267 18.071 12.8277 18.0951C13.1287 18.1192 13.4308 18.0633 13.7033 17.9331C13.9988 17.8004 14.2507 17.5866 14.4297 17.3166C14.6087 17.0465 14.7075 16.7313 14.7147 16.4074V2.69312C14.722 2.38527 14.6463 2.08113 14.4955 1.81265C14.3447 1.54418 14.1243 1.32129 13.8576 1.16741C13.5851 1.03724 13.283 0.981378 12.982 1.00546C12.6809 1.02954 12.3916 1.13272 12.1433 1.30455L5.28613 6.12169" stroke="var(--stroke-0, #8C8C8C)" stroke-width="2" stroke-linecap="round" stroke-linejoin="round"/>
<path id="Vector_3" d="M21.1426 4.55078C22.5263 5.9733 23.236 7.7837 23.1327 9.6277C23.1028 11.7177 22.4157 13.7628 21.1426 15.5508" stroke="var(--stroke-0, #8C8C8C)" stroke-width="2" stroke-linecap="round" stroke-linejoin="round"/>
<path id="Vector_4" d="M18.1426 6.97852C18.7385 7.69901 19.0442 8.61597 18.9997 9.54994C19.0442 10.4839 18.7385 11.4009 18.1426 12.1214" stroke="var(--stroke-0, #8C8C8C)" stroke-width="2" stroke-linecap="round" stroke-linejoin="round"/>
</g>
</svg>
