<svg preserveAspectRatio="none" width="100%" height="100%" overflow="visible" style="display: block;" viewBox="0 0 13.5 18" fill="none" xmlns="http://www.w3.org/2000/svg">
<g id="Vector">
<path d="M2.8125 13.5C2.50184 13.5 2.25 13.2482 2.25 12.9375V10.6875C2.25 10.3768 2.50184 10.125 2.8125 10.125H3.9375C4.24816 10.125 4.5 10.3768 4.5 10.6875V12.9375C4.5 13.2482 4.24816 13.5 3.9375 13.5H2.8125Z" fill="#3B3B3B"/>
<path d="M6.1875 13.5C5.87684 13.5 5.625 13.2482 5.625 12.9375V8.4375C5.625 8.12684 5.87684 7.875 6.1875 7.875H7.3125C7.62316 7.875 7.875 8.12684 7.875 8.4375V12.9375C7.875 13.2482 7.62316 13.5 7.3125 13.5H6.1875Z" fill="#3B3B3B"/>
<path d="M9.5625 13.5C9.25184 13.5 9 13.2482 9 12.9375V6.1875C9 5.87684 9.25184 5.625 9.5625 5.625H10.6875C10.9982 5.625 11.25 5.87684 11.25 6.1875V12.9375C11.25 13.2482 10.9982 13.5 10.6875 13.5H9.5625Z" fill="#3B3B3B"/>
<path d="M2.25 0C1.00736 0 0 1.00736 0 2.25V15.75C0 16.9926 1.00736 18 2.25 18H11.25C12.4926 18 13.5 16.9926 13.5 15.75V2.25C13.5 1.00736 12.4926 0 11.25 0H2.25ZM2.25 1.125H11.25C11.8713 1.125 12.375 1.62868 12.375 2.25V15.75C12.375 16.3713 11.8713 16.875 11.25 16.875H2.25C1.62868 16.875 1.125 16.3713 1.125 15.75V2.25C1.125 1.62868 1.62868 1.125 2.25 1.125Z" fill="#3B3B3B"/>
</g>
</svg>
