<svg preserveAspectRatio="none" width="100%" height="100%" overflow="visible" style="display: block;" viewBox="0 0 40 40" fill="none" xmlns="http://www.w3.org/2000/svg">
<g id="Frame 1261155426">
<path id="Shape" d="M19.8118 13.3938C21.6839 11.5199 24.7214 11.5199 26.5949 13.3934C28.4203 15.2188 28.4671 18.1494 26.7353 20.0315L26.5849 20.1893L19.5488 27.2239L19.5196 27.2481C18.3512 28.3009 16.549 28.2651 15.4238 27.1399C14.3691 26.0852 14.2715 24.436 15.1308 23.2713C15.1495 23.235 15.1721 23.2001 15.1986 23.1672L15.2415 23.1195L15.3109 23.0493L15.4238 22.9311L15.4261 22.9334L21.3713 16.9733C21.584 16.7601 21.9171 16.7403 22.1521 16.9142L22.2194 16.9721C22.4326 17.1847 22.4524 17.5179 22.2785 17.7529L22.2205 17.8202L16.1482 23.9073C15.5744 24.6073 15.6143 25.6422 16.2679 26.2957C16.9308 26.9586 17.9859 26.9902 18.6861 26.3904L25.7483 19.33C27.1519 17.9247 27.1519 15.6466 25.7468 14.2415C24.3857 12.8803 22.2052 12.8377 20.7928 14.1138L20.6585 14.2415L20.6485 14.2529L13.0237 21.8777C12.7895 22.1119 12.4098 22.1119 12.1756 21.8777C11.9627 21.6648 11.9434 21.3317 12.1176 21.0969L12.1756 21.0296L19.8105 13.3934L19.8118 13.3938Z" fill="var(--fill-0, #8C8C8C)" stroke="var(--stroke-1, #8C8C8C)" stroke-width="0.799553"/>
</g>
</svg>
