<svg preserveAspectRatio="none" width="100%" height="100%" overflow="visible" style="display: block;" viewBox="0 0 19.8896 15.6374" fill="none" xmlns="http://www.w3.org/2000/svg">
<g id="Group">
<path id="Vector" d="M4.32735 5.01217H2.22215C1.84993 5.01217 1.49295 5.16003 1.22975 5.42324C0.966553 5.68644 0.818688 6.04341 0.818688 6.41564V9.22257C0.818688 9.59479 0.966553 9.95176 1.22975 10.215C1.49295 10.4782 1.84993 10.626 2.22215 10.626H4.32735V5.01217Z" stroke="var(--stroke-0, #8C8C8C)" stroke-width="1.63738" stroke-linecap="round" stroke-linejoin="round"/>
<path id="Vector_2" d="M4.32845 10.6256L9.816 14.5694C10.0193 14.71 10.2562 14.7945 10.5026 14.8142C10.7491 14.8339 10.9964 14.7882 11.2195 14.6816C11.4614 14.573 11.6676 14.3979 11.8142 14.1769C11.9607 13.9558 12.0416 13.6977 12.0475 13.4326V2.20483C12.0535 1.95279 11.9915 1.70379 11.868 1.484C11.7446 1.2642 11.5642 1.08172 11.3458 0.955743C11.1227 0.84918 10.8754 0.803443 10.629 0.823159C10.3825 0.842875 10.1456 0.927345 9.94232 1.06802L4.32845 5.01176" stroke="var(--stroke-0, #8C8C8C)" stroke-width="1.63738" stroke-linecap="round" stroke-linejoin="round"/>
<path id="Vector_3" d="M17.6605 3.60824C18.6363 4.78796 19.1368 6.28937 19.064 7.81864C19.0429 9.55192 18.5583 11.248 17.6605 12.7308" stroke="var(--stroke-0, #8C8C8C)" stroke-width="1.63738" stroke-linecap="round" stroke-linejoin="round"/>
<path id="Vector_4" d="M14.8519 5.71322C15.3398 6.30308 15.59 7.05378 15.5536 7.81842C15.59 8.58305 15.3398 9.33375 14.8519 9.92362" stroke="var(--stroke-0, #8C8C8C)" stroke-width="1.63738" stroke-linecap="round" stroke-linejoin="round"/>
</g>
</svg>
