<svg preserveAspectRatio="none" width="100%" height="100%" overflow="visible" style="display: block;" viewBox="0 0 17.7334 22.5335" fill="none" xmlns="http://www.w3.org/2000/svg">
<g id="Group">
<path id="Vector" d="M12.8666 10.4667C12.8666 11.5275 12.4451 12.5449 11.695 13.2951C10.9449 14.0452 9.92744 14.4666 8.86658 14.4666C7.80571 14.4666 6.7883 14.0452 6.03816 13.2951C5.28801 12.5449 4.86659 11.5275 4.86659 10.4667V4.86667C4.86659 3.8058 5.28801 2.78839 6.03816 2.03825C6.7883 1.2881 7.80571 0.866676 8.86658 0.866676C9.92744 0.866676 10.9449 1.2881 11.695 2.03825C12.4451 2.78839 12.8666 3.8058 12.8666 4.86667V10.4667Z" stroke="var(--stroke-0, #8C8C8C)" stroke-width="1.73335" stroke-linecap="round" stroke-linejoin="round"/>
<path id="Vector_2" d="M16.8667 11.2668C16.8688 12.2129 16.684 13.1501 16.3229 14.0246C15.9618 14.8991 15.4315 15.6936 14.7625 16.3626C14.0935 17.0316 13.299 17.5619 12.4245 17.923C11.55 18.2841 10.6128 18.4689 9.66667 18.4668H8.06668C7.12057 18.4689 6.18336 18.2841 5.30887 17.923C4.43437 17.5619 3.63982 17.0316 2.97082 16.3626C2.30182 15.6936 1.77155 14.8991 1.41046 14.0246C1.04938 13.1501 0.864584 12.2129 0.866693 11.2668V11.2668" stroke="var(--stroke-0, #8C8C8C)" stroke-width="1.73335" stroke-linecap="round" stroke-linejoin="round"/>
<path id="Vector_3" d="M8.86734 18.4668V21.6668" stroke="var(--stroke-0, #8C8C8C)" stroke-width="1.73335" stroke-linecap="round" stroke-linejoin="round"/>
</g>
</svg>
