<svg preserveAspectRatio="none" width="100%" height="100%" overflow="visible" style="display: block;" viewBox="0 0 15.9999 11.9999" fill="none" xmlns="http://www.w3.org/2000/svg">
<g id="Vector">
<path d="M6.99996 11.9999C6.99996 11.9999 5.99997 11.9999 5.99997 10.9999C5.99997 9.99995 6.99996 6.99996 10.9999 6.99996C14.9999 6.99996 15.9999 9.99995 15.9999 10.9999C15.9999 11.9999 14.9999 11.9999 14.9999 11.9999H6.99996Z" fill="var(--fill-0, #595959)"/>
<path d="M10.9999 5.99997C12.6568 5.99997 13.9999 4.65683 13.9999 2.99998C13.9999 1.34314 12.6568 0 10.9999 0C9.34309 0 7.99996 1.34314 7.99996 2.99998C7.99996 4.65683 9.34309 5.99997 10.9999 5.99997Z" fill="var(--fill-0, #595959)"/>
<path d="M5.21633 11.9999C5.07553 11.7159 4.99997 11.3791 4.99997 10.9999C4.99997 9.64449 5.67902 8.25051 6.93589 7.27993C6.38606 7.10406 5.74506 6.99996 4.99997 6.99996C0.999995 6.99996 0 9.99995 0 10.9999C0 11.9999 0.999995 11.9999 0.999995 11.9999H5.21633Z" fill="var(--fill-0, #595959)"/>
<path d="M4.49998 5.99997C5.88068 5.99997 6.99996 4.88069 6.99996 3.49998C6.99996 2.11928 5.88068 0.999995 4.49998 0.999995C3.11927 0.999995 1.99999 2.11928 1.99999 3.49998C1.99999 4.88069 3.11927 5.99997 4.49998 5.99997Z" fill="var(--fill-0, #595959)"/>
</g>
</svg>
