<svg width="30" height="30" viewBox="0 0 30 30" fill="none" xmlns="http://www.w3.org/2000/svg">
<rect width="30" height="30" rx="3.75" fill="#F3F3EF"/>
<path d="M14.6934 5.36729C14.7384 5.00614 15.2618 5.00613 15.3067 5.36729L16.0902 11.6651C16.1198 11.9031 16.3975 12.0182 16.5867 11.8708L21.594 7.97155C21.8811 7.74795 22.2513 8.11808 22.0277 8.40522L18.1284 13.4125C17.9811 13.6017 18.0961 13.8794 18.3341 13.909L24.6319 14.6925C24.9931 14.7374 24.9931 15.2608 24.6319 15.3058L18.3341 16.0892C18.0961 16.1189 17.9811 16.3965 18.1284 16.5858L22.0277 21.593C22.2513 21.8802 21.8811 22.2503 21.594 22.0267L16.5867 18.1274C16.3975 17.9801 16.1198 18.0951 16.0902 18.3331L15.3067 24.6309C15.2618 24.9921 14.7384 24.9921 14.6934 24.6309L13.91 18.3331C13.8804 18.0951 13.6027 17.9801 13.4135 18.1274L8.4062 22.0267C8.11905 22.2503 7.74892 21.8802 7.97253 21.593L11.8718 16.5858C12.0191 16.3965 11.9041 16.1189 11.6661 16.0892L5.36827 15.3058C5.00711 15.2608 5.00711 14.7374 5.36827 14.6925L11.6661 13.909C11.9041 13.8794 12.0191 13.6017 11.8718 13.4125L7.97253 8.40522C7.74892 8.11808 8.11905 7.74795 8.4062 7.97155L13.4135 11.8708C13.6027 12.0182 13.8804 11.9031 13.91 11.6651L14.6934 5.36729Z" fill="#5B5B5B"/>
</svg>
