<svg preserveAspectRatio="none" width="100%" height="100%" overflow="visible" style="display: block;" viewBox="0 0 14.9999 14.6512" fill="none" xmlns="http://www.w3.org/2000/svg">
<g id="Frame 1261158435">
<path id="Union" d="M3.36022 0.497847C3.6591 0.198976 4.14411 0.198976 4.44298 0.497847L7.68987 3.74474L11.2102 0.224395C11.509 -0.0744065 11.9934 -0.0749595 12.2923 0.223705L14.7278 2.65922C15.0265 2.9581 15.0259 3.44246 14.7271 3.74128L11.2068 7.26163L14.7243 10.7792C15.0232 11.0781 15.0232 11.5631 14.7243 11.862L12.2895 14.2968C11.9906 14.5957 11.5056 14.5957 11.2068 14.2968L7.68918 10.7792L4.44574 14.0226C4.14692 14.3215 3.66256 14.3221 3.36368 14.0233L0.928164 11.5878C0.629499 11.2889 0.630052 10.8046 0.928854 10.5058L4.17229 7.26232L0.925402 4.01543C0.626531 3.71656 0.626531 3.23154 0.925402 2.93267L3.36022 0.497847Z" fill="var(--fill-0, #535353)"/>
</g>
</svg>
