<svg preserveAspectRatio="none" width="100%" height="100%" overflow="visible" style="display: block;" viewBox="0 0 96.4517 40.0016" fill="none" xmlns="http://www.w3.org/2000/svg">
<g id="Frame 1261158114">
<circle id="Ellipse 331" cx="76.4517" cy="19.9998" r="19.3206" fill="var(--fill-0, #FFE7B7)" stroke="var(--stroke-0, black)" stroke-width="1.35848"/>
<circle id="Ellipse 332" cx="48.2237" cy="19.9998" r="19.3206" fill="var(--fill-0, #80DADA)" stroke="var(--stroke-0, black)" stroke-width="1.35848"/>
<g id="Intersect">
<mask id="path-3-inside-1_0_109" fill="white">
<path d="M62.7957 5.89865C66.1635 9.47797 68.2283 14.2974 68.2283 19.5998C68.2283 25.3654 65.787 30.5593 61.8836 34.2092C58.5161 30.63 56.452 25.8102 56.452 20.508C56.452 14.7428 58.8928 9.5485 62.7957 5.89865Z"/>
</mask>
<path d="M62.7957 5.89865C66.1635 9.47797 68.2283 14.2974 68.2283 19.5998C68.2283 25.3654 65.787 30.5593 61.8836 34.2092C58.5161 30.63 56.452 25.8102 56.452 20.508C56.452 14.7428 58.8928 9.5485 62.7957 5.89865Z" fill="var(--fill-0, #A1A5FD)"/>
<path d="M62.7957 5.89865L63.7851 4.96773L62.857 3.98136L61.8678 4.90643L62.7957 5.89865ZM68.2283 19.5998L69.5868 19.5998V19.5998H68.2283ZM61.8836 34.2092L60.8942 35.1401L61.8222 36.1264L62.8114 35.2015L61.8836 34.2092ZM56.452 20.508H55.0935V20.508L56.452 20.508ZM62.7957 5.89865L61.8063 6.82956C64.9467 10.1672 66.8698 14.6572 66.8698 19.5998H68.2283H69.5868C69.5868 13.9375 67.3803 8.78876 63.7851 4.96773L62.7957 5.89865ZM68.2283 19.5998L66.8698 19.5998C66.8698 24.9734 64.5962 29.8129 60.9558 33.2169L61.8836 34.2092L62.8114 35.2015C66.9777 31.3057 69.5867 25.7573 69.5868 19.5998L68.2283 19.5998ZM61.8836 34.2092L62.873 33.2783C59.733 29.9409 57.8105 25.4505 57.8104 20.508L56.452 20.508L55.0935 20.508C55.0935 26.1699 57.2992 31.319 60.8942 35.1401L61.8836 34.2092ZM56.452 20.508H57.8104C57.8104 15.1347 60.0836 10.2948 63.7236 6.89086L62.7957 5.89865L61.8678 4.90643C57.702 8.80219 55.0935 14.351 55.0935 20.508H56.452Z" fill="var(--stroke-0, black)" mask="url(#path-3-inside-1_0_109)"/>
</g>
<circle id="Ellipse 333" cx="19.9998" cy="19.9998" r="19.3206" fill="var(--fill-0, #F4298F)" stroke="var(--stroke-0, black)" stroke-width="1.35848"/>
<g id="Intersect_2">
<mask id="path-6-inside-2_0_109" fill="white">
<path d="M34.5715 5.89844C37.9403 9.47794 40.0061 14.2982 40.0061 19.6016C40.006 25.3665 37.565 30.5602 33.6624 34.21C30.2942 30.6306 28.2298 25.8106 28.2297 20.5078C28.2297 14.743 30.6691 9.54826 34.5715 5.89844Z"/>
</mask>
<path d="M34.5715 5.89844C37.9403 9.47794 40.0061 14.2982 40.0061 19.6016C40.006 25.3665 37.565 30.5602 33.6624 34.21C30.2942 30.6306 28.2298 25.8106 28.2297 20.5078C28.2297 14.743 30.6691 9.54826 34.5715 5.89844Z" fill="var(--fill-0, #FFBC7A)"/>
<path d="M34.5715 5.89844L35.5608 4.96741L34.6327 3.98121L33.6436 4.90627L34.5715 5.89844ZM40.0061 19.6016L41.3646 19.6016V19.6016H40.0061ZM33.6624 34.21L32.673 35.1409L33.6011 36.1272L34.5903 35.2022L33.6624 34.21ZM28.2297 20.5078H26.8713V20.5078L28.2297 20.5078ZM34.5715 5.89844L33.5823 6.82947C36.7236 10.1673 38.6476 14.6582 38.6476 19.6016H40.0061H41.3646C41.3646 13.9383 39.157 8.7886 35.5608 4.96741L34.5715 5.89844ZM40.0061 19.6016L38.6476 19.6016C38.6476 24.9746 36.3742 29.8138 32.7344 33.2178L33.6624 34.21L34.5903 35.2022C38.7558 31.3065 41.3645 25.7584 41.3646 19.6016L40.0061 19.6016ZM33.6624 34.21L34.6517 33.279C31.5111 29.9415 29.5883 25.4509 29.5882 20.5078L28.2297 20.5078L26.8713 20.5078C26.8713 26.1703 29.0773 31.3197 32.673 35.1409L33.6624 34.21ZM28.2297 20.5078H29.5882C29.5882 15.1346 31.8601 10.2944 35.4995 6.89061L34.5715 5.89844L33.6436 4.90627C29.478 8.80217 26.8713 14.3514 26.8713 20.5078H28.2297Z" fill="var(--stroke-0, black)" mask="url(#path-6-inside-2_0_109)"/>
</g>
</g>
</svg>
