<svg width="31" height="31" viewBox="0 0 31 31" fill="none" xmlns="http://www.w3.org/2000/svg">
<rect width="30.9998" height="30.9998" rx="2" fill="#EE1682"/>
<path d="M15.1831 5.54711C15.2295 5.17392 15.7704 5.17392 15.8168 5.54711L16.6264 12.0548C16.657 12.3008 16.9439 12.4196 17.1395 12.2673L22.3136 8.23816C22.6103 8.0071 22.9928 8.38957 22.7617 8.68629L18.7325 13.8604C18.5802 14.0559 18.6991 14.3429 18.945 14.3735L25.4528 15.1831C25.8259 15.2295 25.8259 15.7704 25.4528 15.8168L18.945 16.6264C18.6991 16.657 18.5802 16.9439 18.7325 17.1395L22.7617 22.3136C22.9928 22.6103 22.6103 22.9928 22.3136 22.7617L17.1395 18.7325C16.9439 18.5802 16.657 18.6991 16.6264 18.945L15.8168 25.4528C15.7704 25.8259 15.2295 25.8259 15.1831 25.4528L14.3735 18.945C14.3429 18.6991 14.056 18.5802 13.8604 18.7325L8.68629 22.7617C8.38957 22.9928 8.0071 22.6103 8.23816 22.3136L12.2673 17.1395C12.4196 16.9439 12.3008 16.657 12.0548 16.6264L5.54711 15.8168C5.17392 15.7704 5.17392 15.2295 5.54711 15.1831L12.0548 14.3735C12.3008 14.3429 12.4196 14.056 12.2673 13.8604L8.23816 8.68629C8.0071 8.38957 8.38957 8.0071 8.68629 8.23816L13.8604 12.2673C14.0559 12.4196 14.3429 12.3008 14.3735 12.0548L15.1831 5.54711Z" fill="white"/>
</svg>
